<svg width="23" height="20" viewBox="0 0 23 20" fill="none" xmlns="http://www.w3.org/2000/svg">
<path d="M18 0H15.5C15.3674 0 15.2402 0.0526785 15.1464 0.146447C15.0527 0.240215 15 0.367392 15 0.5V0.559L18.5 3.359V0.5C18.5 0.367392 18.4473 0.240215 18.3536 0.146447C18.2598 0.0526785 18.1326 0 18 0Z" fill="#FFF1F1"/>
<path fill-rule="evenodd" clip-rule="evenodd" d="M20.25 7.96181L21.032 8.58781C21.1877 8.70912 21.3849 8.76419 21.5809 8.74106C21.7769 8.71793 21.9559 8.61848 22.0791 8.46426C22.2022 8.31004 22.2596 8.11349 22.2388 7.91723C22.2181 7.72096 22.1207 7.5408 21.968 7.41581L13.843 0.915807C13.178 0.38367 12.3517 0.09375 11.5 0.09375C10.6483 0.09375 9.82199 0.38367 9.157 0.915807L1.032 7.41581C0.876583 7.54006 0.776891 7.72096 0.754856 7.91872C0.73282 8.11648 0.790246 8.31489 0.9145 8.47031C1.03875 8.62572 1.21966 8.72542 1.41741 8.74745C1.61517 8.76949 1.81358 8.71206 1.969 8.58781L2.75 7.96181V18.2518H1.5C1.30109 18.2518 1.11032 18.3308 0.96967 18.4715C0.829018 18.6121 0.75 18.8029 0.75 19.0018C0.75 19.2007 0.829018 19.3915 0.96967 19.5321C1.11032 19.6728 1.30109 19.7518 1.5 19.7518H21.5C21.6989 19.7518 21.8897 19.6728 22.0303 19.5321C22.171 19.3915 22.25 19.2007 22.25 19.0018C22.25 18.8029 22.171 18.6121 22.0303 18.4715C21.8897 18.3308 21.6989 18.2518 21.5 18.2518H20.25V7.96181ZM8.75 6.50181C8.75 5.77246 9.03973 5.07299 9.55546 4.55726C10.0712 4.04154 10.7707 3.75181 11.5 3.75181C12.2293 3.75181 12.9288 4.04154 13.4445 4.55726C13.9603 5.07299 14.25 5.77246 14.25 6.50181C14.25 7.23115 13.9603 7.93063 13.4445 8.44635C12.9288 8.96208 12.2293 9.25181 11.5 9.25181C10.7707 9.25181 10.0712 8.96208 9.55546 8.44635C9.03973 7.93063 8.75 7.23115 8.75 6.50181ZM11.55 10.2518C12.214 10.2518 12.787 10.2518 13.246 10.3138C13.738 10.3798 14.209 10.5288 14.591 10.9108C14.973 11.2928 15.122 11.7638 15.188 12.2558C15.246 12.6858 15.25 13.2158 15.25 13.8288V18.2518H13.75V14.0018C13.75 13.2738 13.748 12.8018 13.702 12.4558C13.658 12.1308 13.588 12.0288 13.53 11.9718C13.472 11.9148 13.371 11.8438 13.046 11.7998C12.699 11.7538 12.228 11.7518 11.5 11.7518C10.772 11.7518 10.3 11.7538 9.954 11.7998C9.629 11.8438 9.527 11.9148 9.47 11.9718C9.413 12.0288 9.342 12.1308 9.298 12.4558C9.252 12.8028 9.25 13.2738 9.25 14.0018V18.2518H7.75V13.9518C7.75 13.2878 7.75 12.7148 7.812 12.2558C7.878 11.7638 8.027 11.2928 8.409 10.9108C8.791 10.5288 9.263 10.3798 9.754 10.3138C10.213 10.2518 10.786 10.2518 11.451 10.2518H11.55Z" fill="white"/>
<path d="M10.25 6.5C10.25 6.16848 10.3817 5.85054 10.6161 5.61612C10.8505 5.3817 11.1685 5.25 11.5 5.25C11.8315 5.25 12.1495 5.3817 12.3839 5.61612C12.6183 5.85054 12.75 6.16848 12.75 6.5C12.75 6.83152 12.6183 7.14946 12.3839 7.38388C12.1495 7.6183 11.8315 7.75 11.5 7.75C11.1685 7.75 10.8505 7.6183 10.6161 7.38388C10.3817 7.14946 10.25 6.83152 10.25 6.5Z" fill="white"/>
</svg>
