<svg width="42" height="43" viewBox="0 0 42 43" fill="none" xmlns="http://www.w3.org/2000/svg">
<path d="M23.1422 0.667969C25.486 0.674219 26.6755 0.686719 27.7026 0.715885L28.1068 0.730469C28.5735 0.747135 29.0339 0.767969 29.5901 0.792969C31.8068 0.897135 33.3193 1.24714 34.6464 1.76172C36.0214 2.29089 37.1797 3.00755 38.338 4.1638C39.3978 5.20491 40.2176 6.46479 40.7401 7.85547C41.2547 9.18255 41.6047 10.6951 41.7089 12.9138C41.7339 13.468 41.7547 13.9284 41.7714 14.3971L41.7839 14.8013C41.8151 15.8263 41.8276 17.0159 41.8318 19.3596L41.8339 20.9138V23.643C41.8389 25.1626 41.823 26.6821 41.7859 28.2013L41.7735 28.6055C41.7568 29.0742 41.736 29.5346 41.711 30.0888C41.6068 32.3076 41.2526 33.818 40.7401 35.1471C40.2176 36.5378 39.3978 37.7977 38.338 38.8388C37.2969 39.8986 36.037 40.7184 34.6464 41.2409C33.3193 41.7555 31.8068 42.1055 29.5901 42.2096L28.1068 42.2721L27.7026 42.2846C26.6755 42.3138 25.486 42.3284 23.1422 42.3326L21.588 42.3346H18.861C17.3407 42.34 15.8204 42.324 14.3005 42.2867L13.8964 42.2742C13.4018 42.2555 12.9074 42.234 12.413 42.2096C10.1964 42.1055 8.68387 41.7555 7.3547 41.2409C5.96476 40.7181 4.70562 39.8983 3.66512 38.8388C2.60459 37.7979 1.78409 36.538 1.26095 35.1471C0.746368 33.82 0.396367 32.3076 0.292201 30.0888L0.229701 28.6055L0.219284 28.2013C0.18088 26.6822 0.163517 25.1626 0.167201 23.643V19.3596C0.161434 17.8401 0.176714 16.3205 0.213034 14.8013L0.227617 14.3971C0.244284 13.9284 0.265117 13.468 0.290117 12.9138C0.394284 10.6951 0.744284 9.18464 1.25887 7.85547C1.78323 6.46422 2.60517 5.20429 3.6672 4.1638C4.7071 3.10453 5.96551 2.28479 7.3547 1.76172C8.68387 1.24714 10.1943 0.897135 12.413 0.792969C12.9672 0.767969 13.4297 0.747135 13.8964 0.730469L14.3005 0.717969C15.8197 0.680954 17.3393 0.66498 18.8589 0.670052L23.1422 0.667969ZM21.0005 11.0846C18.2379 11.0846 15.5883 12.1821 13.6348 14.1356C11.6813 16.0891 10.5839 18.7386 10.5839 21.5013C10.5839 24.264 11.6813 26.9135 13.6348 28.867C15.5883 30.8205 18.2379 31.918 21.0005 31.918C23.7632 31.918 26.4127 30.8205 28.3662 28.867C30.3197 26.9135 31.4172 24.264 31.4172 21.5013C31.4172 18.7386 30.3197 16.0891 28.3662 14.1356C26.4127 12.1821 23.7632 11.0846 21.0005 11.0846ZM21.0005 15.2513C21.8213 15.2512 22.634 15.4127 23.3924 15.7267C24.1507 16.0406 24.8398 16.5009 25.4203 17.0811C26.0007 17.6614 26.4612 18.3503 26.7754 19.1086C27.0896 19.8668 27.2514 20.6795 27.2516 21.5003C27.2517 22.321 27.0902 23.1338 26.7762 23.8921C26.4623 24.6504 26.002 25.3395 25.4217 25.92C24.8415 26.5004 24.1525 26.9609 23.3943 27.2752C22.6361 27.5894 21.8234 27.7512 21.0026 27.7513C19.345 27.7513 17.7553 27.0928 16.5832 25.9207C15.4111 24.7486 14.7526 23.1589 14.7526 21.5013C14.7526 19.8437 15.4111 18.254 16.5832 17.0819C17.7553 15.9098 19.345 15.2513 21.0026 15.2513M31.9401 7.95964C31.2494 7.95964 30.5871 8.234 30.0987 8.72238C29.6103 9.21075 29.336 9.87313 29.336 10.5638C29.336 11.2545 29.6103 11.9168 30.0987 12.4052C30.5871 12.8936 31.2494 13.168 31.9401 13.168C32.6308 13.168 33.2932 12.8936 33.7815 12.4052C34.2699 11.9168 34.5443 11.2545 34.5443 10.5638C34.5443 9.87313 34.2699 9.21075 33.7815 8.72238C33.2932 8.234 32.6308 7.95964 31.9401 7.95964Z" fill="white"/>
</svg>
