<svg width="38" height="39" viewBox="0 0 38 39" fill="none" xmlns="http://www.w3.org/2000/svg">
<path d="M33.5833 0.75C34.6884 0.75 35.7482 1.18899 36.5296 1.97039C37.311 2.75179 37.75 3.8116 37.75 4.91667V34.0833C37.75 35.1884 37.311 36.2482 36.5296 37.0296C35.7482 37.811 34.6884 38.25 33.5833 38.25H4.41667C3.3116 38.25 2.25179 37.811 1.47039 37.0296C0.688987 36.2482 0.25 35.1884 0.25 34.0833V4.91667C0.25 3.8116 0.688987 2.75179 1.47039 1.97039C2.25179 1.18899 3.3116 0.75 4.41667 0.75H33.5833ZM32.5417 33.0417V22C32.5417 20.1987 31.8261 18.4713 30.5524 17.1976C29.2787 15.9239 27.5513 15.2083 25.75 15.2083C23.9792 15.2083 21.9167 16.2917 20.9167 17.9167V15.6042H15.1042V33.0417H20.9167V22.7708C20.9167 21.1667 22.2083 19.8542 23.8125 19.8542C24.586 19.8542 25.3279 20.1615 25.8749 20.7084C26.4219 21.2554 26.7292 21.9973 26.7292 22.7708V33.0417H32.5417ZM8.33333 12.3333C9.26159 12.3333 10.1518 11.9646 10.8082 11.3082C11.4646 10.6518 11.8333 9.76159 11.8333 8.83333C11.8333 6.89583 10.2708 5.3125 8.33333 5.3125C7.39955 5.3125 6.50401 5.68344 5.84373 6.34373C5.18344 7.00401 4.8125 7.89955 4.8125 8.83333C4.8125 10.7708 6.39583 12.3333 8.33333 12.3333ZM11.2292 33.0417V15.6042H5.45833V33.0417H11.2292Z" fill="white"/>
</svg>
