<svg width="50" height="49" viewBox="0 0 50 49" fill="none" xmlns="http://www.w3.org/2000/svg">
<path d="M43.4523 0.28125H6.54766C3.36719 0.28125 0.78125 2.86797 0.78125 6.04766V42.9523C0.78125 46.132 3.36797 48.7188 6.54766 48.7188H43.4523C46.632 48.7188 49.2188 46.132 49.2188 42.9523V6.04766C49.2188 2.86719 46.632 0.28125 43.4523 0.28125ZM38.8461 21.4125C38.582 21.4385 38.3169 21.4521 38.0508 21.4531C36.6159 21.4534 35.2036 21.0964 33.9413 20.4143C32.679 19.7322 31.6064 18.7465 30.8203 17.5461V30.8508C30.8205 32.7959 30.2438 34.6974 29.1632 36.3148C28.0827 37.9321 26.5468 39.1928 24.7498 39.9372C22.9527 40.6816 20.9753 40.8764 19.0675 40.497C17.1598 40.1176 15.4074 39.1809 14.032 37.8055C12.6566 36.4301 11.7199 34.6777 11.3405 32.77C10.9611 30.8622 11.1559 28.8848 11.9003 27.0878C12.6447 25.2907 13.9054 23.7548 15.5227 22.6743C17.1401 21.5937 19.0416 21.017 20.9867 21.0172C21.1922 21.0172 21.393 21.0352 21.5945 21.0484V25.8945C21.393 25.8703 21.1945 25.8336 20.9867 25.8336C20.3276 25.8336 19.675 25.9634 19.0661 26.2156C18.4572 26.4678 17.904 26.8375 17.4379 27.3036C16.9719 27.7696 16.6022 28.3228 16.35 28.9318C16.0978 29.5407 15.968 30.1933 15.968 30.8523C15.968 31.5114 16.0978 32.164 16.35 32.7729C16.6022 33.3818 16.9719 33.9351 17.4379 34.4011C17.904 34.8672 18.4572 35.2368 19.0661 35.4891C19.675 35.7413 20.3276 35.8711 20.9867 35.8711C23.7594 35.8711 26.2078 33.6867 26.2078 30.9148L26.2563 8.31719H30.8922C31.1041 10.3315 32.0173 12.2073 33.4721 13.6165C34.9269 15.0258 36.8307 15.8788 38.8508 16.0266V21.4125" fill="white"/>
</svg>
