<svg width="23" height="22" viewBox="0 0 23 22" fill="none" xmlns="http://www.w3.org/2000/svg">
<path d="M11.25 20C12.4319 20 13.6022 19.7672 14.6942 19.3149C15.7861 18.8626 16.7782 18.1997 17.614 17.364C18.4497 16.5282 19.1126 15.5361 19.5649 14.4442C20.0172 13.3522 20.25 12.1819 20.25 11C20.25 9.8181 20.0172 8.64778 19.5649 7.55585C19.1126 6.46392 18.4497 5.47177 17.614 4.63604C16.7782 3.80031 15.7861 3.13738 14.6942 2.68508C13.6022 2.23279 12.4319 2 11.25 2C8.86305 2 6.57387 2.94821 4.88604 4.63604C3.19821 6.32387 2.25 8.61305 2.25 11C2.25 13.3869 3.19821 15.6761 4.88604 17.364C6.57387 19.0518 8.86305 20 11.25 20ZM22.25 11C22.25 17.075 17.325 22 11.25 22C5.175 22 0.25 17.075 0.25 11C0.25 4.925 5.175 0 11.25 0C17.325 0 22.25 4.925 22.25 11ZM14.25 15.414L10.25 11.414V4.5H12.25V10.586L15.664 14L14.25 15.414Z" fill="white"/>
</svg>
