<svg width="51" height="50" viewBox="0 0 51 50" fill="none" xmlns="http://www.w3.org/2000/svg">
<path d="M4.70131 34.375C11.218 47.2656 19.1319 48.6979 24.6246 50C16.5805 39.8438 14.6645 29.6875 16.5805 17.5781C8.15041 8.98438 1.63752 10.1562 1.63478 10.1562C0.485077 14.8438 0.215417 25.5015 4.70131 34.375Z" fill="white"/>
<path d="M26.1616 0C16.9645 8.59375 11.2163 33.5938 26.3567 50C24.6246 40.625 26.5441 25.3906 34.5916 17.9688C33.4426 11.3281 29.9938 3.51562 26.1616 0Z" fill="white"/>
<path d="M27.3112 49.6094C23.0959 18.75 45.7054 10.1562 50.3039 10.1562C54.136 33.9844 39.1908 48.4375 27.3112 49.6094Z" fill="white"/>
</svg>
